# xmcd CD database file
#
# Track frame offsets:
#	150
#	16110
#	35221
#	49081
#	65415
#	78158
#	90870
#	102391
#	118155
#	129225
#	143385
#
# Disc length: 2020 seconds
#
# Revision: 0
# Processed by: cddbd v1.5.2PL0 Copyright (c) Steve Scherf et al.
# Submitted via: CDex 1.70beta2
#
DISCID=8207e20b
DTITLE=Cream - Disraeli Gears
DYEAR=1967
DGENRE=Blues
TTITLE0=Strange Brew
TTITLE1=Sunshine of Your Love
TTITLE2=World of Pain
TTITLE3=Dance the Night Away
TTITLE4=Blue Condition
TTITLE5=Tales of Brave Ulysses
TTITLE6=SWLABR
TTITLE7=We're going Wrong
TTITLE8=Outside Woman Blues
TTITLE9=Take it Back
TTITLE10=Mothers Lament
EXTD=YEAR: 1967
EXTT0=
EXTT1=
EXTT2=
EXTT3=
EXTT4=
EXTT5=
EXTT6=
EXTT7=
EXTT8=
EXTT9=
EXTT10=
PLAYORDER=
